<svg width="624" height="84" viewBox="0 0 624 84" fill="none" xmlns="http://www.w3.org/2000/svg">
<mask id="path-1-outside-1_96_51" maskUnits="userSpaceOnUse" x="0" y="0" width="624" height="84" fill="black">
<rect fill="white" width="624" height="84"/>
<path fill-rule="evenodd" clip-rule="evenodd" d="M172.729 2.27915C169.974 2.53242 168.334 3.23883 167.574 4.50348C166.467 6.34187 166.402 5.22023 170.101 47.6479C170.726 54.824 170.695 56.6021 169.915 58.3888C167.698 63.4612 158.754 64.874 155.757 60.6235C154.448 58.7661 154.434 58.6369 152.326 29.5569C150.551 5.04793 150.636 5.50279 147.633 4.55517C145.582 3.90734 135.91 4.67405 134.403 5.60272C132.119 7.01037 132.103 7.41354 133.438 29.4122C135.924 70.3806 137.326 75.0205 148.586 79.5019C158.664 83.5112 175.971 80.7734 183.017 74.0556C189.585 67.791 190.696 61.578 189.147 39.7361C186.409 1.10409 186.77 3.93146 184.401 2.55137C183.36 1.94489 177.81 1.81567 172.729 2.27915ZM226.01 3.85909C196.781 6.24711 198.709 5.38735 199.465 15.7009C200.031 23.4473 200.771 23.8695 211.671 22.6703C218.277 21.9415 218.174 21.8932 218.573 25.9663C218.664 26.9139 219.685 37.5756 220.84 49.6569C221.995 61.74 223.086 72.9167 223.264 74.4967C223.958 80.6494 225.389 81.6142 232.859 80.9595C240.227 80.3134 241.031 79.2383 240.386 70.8974C240.209 68.6128 239.524 58.537 238.863 48.5094C238.201 38.4801 237.524 28.4129 237.358 26.1386C236.923 20.2116 236.415 20.62 244.874 20.0876C255.309 19.4294 255.943 18.8626 255.575 10.52C255.154 0.919737 256.976 1.3298 226.01 3.85909ZM306.76 2.27915C304.419 2.52725 303.516 2.85289 302.667 3.75399C301.255 5.24952 301.266 5.1134 301.387 18.3319L301.502 30.8371L300.751 31.1662C299.227 31.8364 287.553 32.5342 286.929 31.9949C286.253 31.4108 286.235 31.2713 285.114 18.3577C283.755 2.68404 284.2 3.2888 274.121 3.47487C264.31 3.65578 264.708 2.73401 265.772 22.8081C268.807 80.0791 268.618 77.2603 269.564 79.0436C270.617 81.0301 271.798 81.3041 278.818 81.1938C288.301 81.0474 287.683 82.1518 287.683 65.3306C287.683 50.5425 287.497 51.5366 290.32 51.2661C294.393 50.8785 301.76 50.5132 302.292 50.6734C303.348 50.9956 303.496 51.9984 304.21 63.7282C305.264 81.0474 304.776 80.3513 315.524 79.8551C323.301 79.495 324.437 79.0797 325.387 76.2438C325.798 75.0222 325.792 74.8809 324.768 56.4057C324.444 50.5614 323.707 37.0587 323.13 26.397C321.89 3.43008 321.903 3.51623 319.539 2.44455C318.454 1.95178 310.761 1.85185 306.76 2.27915ZM87.7928 2.57377C74.8799 3.82808 68.0702 11.4349 65.6981 27.2585C61.9977 51.9398 68.0017 73.7472 80.0746 79.4709C83.9823 81.323 84.4618 81.3954 92.3692 81.3196C110.037 81.1525 117.501 77.1535 121.198 65.875C124.221 56.659 123.768 26.9105 120.462 17.3515C116.587 6.15407 104.985 0.905954 87.7928 2.57377ZM502.663 2.55137C498.726 3.49038 499.204 0.890446 496.302 37.1655C496.138 39.2192 495.466 47.5532 494.811 55.6872C493.032 77.7445 492.76 76.7882 501.037 77.6704C511.089 78.742 510.983 78.8816 512.54 62.7238C513.8 49.6552 513.84 49.6052 517.605 56.2041C520.095 60.5683 531.355 77.9443 532.503 79.1952C534.868 81.7693 547.912 83.0512 550.262 80.9405C552.921 78.5525 552.18 76.8778 539.462 56.5797C535.19 49.762 535.251 50.446 538.828 49.4226C548.566 46.6331 553.873 36.5487 552.525 23.3974C551.524 13.6455 548.181 9.12271 539.422 5.67681C535.093 3.97281 533.627 3.80223 515.094 2.85289C505.004 2.336 503.697 2.30499 502.663 2.55137ZM602.601 2.58583C599.017 3.08893 599.317 2.80809 590.03 14.3295C581.146 25.3529 581.914 25.2633 581.359 15.3426C580.704 3.63166 580.517 3.42491 570.966 3.95213C561.366 4.47936 561.618 3.89011 562.844 22.9511C563.274 29.6638 564.228 44.6534 564.962 56.2627C565.695 67.8702 566.425 77.7875 566.584 78.301C567.568 81.4764 569.134 82.0157 576.229 81.6263C585.23 81.1301 585.396 80.9285 585.104 70.7562C584.9 63.6162 584.967 62.8668 585.798 62.8668C586.07 62.8668 589.735 66.4402 593.942 70.8079C603.172 80.3892 603.008 80.2824 608.033 79.974C620.328 79.2227 622.062 78.6094 621.975 75.0411C621.918 72.6945 623.909 75.1032 601.847 50.6958C595.908 44.1245 593.051 40.7544 593.051 40.315C593.051 39.507 592.813 39.8412 605.593 22.7289C617.229 7.14649 617.478 6.71747 616.357 4.152C615.632 2.49452 614.769 2.27225 609.214 2.31188C606.519 2.33084 603.545 2.45489 602.601 2.58583ZM455.773 2.8839C452.909 3.71609 453.715 2.14476 440.736 32.2844C434.75 46.1834 428.706 60.2031 427.304 63.4405C421.218 77.4929 421.424 78.8782 429.681 79.5312C439.074 80.2738 440.709 79.8396 442.695 76.0766C444.42 72.8099 443.51 73.0063 454.299 73.5784C465.278 74.159 465.036 74.0935 465.97 76.771C466.507 78.3165 468.36 80.6562 469.058 80.6718C469.097 80.6735 469.93 80.7992 470.907 80.9526C474.445 81.5057 483.486 81.3988 484.563 80.7906C487.441 79.1659 487.427 79.0057 482.778 59.924C480.767 51.671 478.337 41.6882 477.38 37.741C468.609 1.60375 469.51 4.5724 466.945 3.38701C465.332 2.63924 457.781 2.29982 455.773 2.8839ZM22.1199 3.14924C10.402 4.24504 4.79999 9.31396 3.49139 20.0049C1.33925 37.5911 8.12733 47.0862 24.4793 49.3674C33.1059 50.5718 35.9718 52.2568 36.5558 56.4643C37.2696 61.6038 33.1636 65.0205 26.2728 65.0205C22.2118 65.0205 21.5413 64.7827 20.3174 62.8995C17.1973 58.1045 17.4335 58.2165 10.7049 58.3302C2.73255 58.4646 1.05806 60.2151 2.43334 66.9777C3.60855 72.76 10.0506 78.9988 16.4115 80.5201C23.3275 82.1742 34.492 81.9054 39.1676 79.974C57.8051 72.2706 61.401 49.0676 45.552 38.7592C41.5919 36.1851 38.9405 35.2151 31.4278 33.5921C21.4097 31.4281 18.0247 27.815 20.3012 21.7123C22.1613 16.7295 31.6315 16.857 34.93 21.907C37.4354 25.744 37.9473 25.9646 44.3497 25.9646C51.3847 25.9646 52.6086 25.2564 52.6104 21.1885C52.614 14.9739 48.5459 8.30948 43.2989 5.93697C38.4701 3.75572 28.9855 2.50485 22.1199 3.14924ZM373.224 3.05275C370.104 3.62822 369.931 4.68266 369.558 25.2495C369.387 34.6465 369.097 50.0876 368.911 59.5639C368.462 82.6118 368.098 81.7107 377.788 81.4867C385.717 81.3023 385.448 81.9243 386.076 62.3034C386.458 50.3392 385.749 51.5814 392.42 51.1679C407.413 50.2375 415.488 43.6248 417.02 31.0214C418.654 17.6048 411.954 5.89907 401.39 3.7092C398.832 3.17853 375.495 2.6358 373.224 3.05275ZM395.043 21.4367C397.792 23.0614 399.135 27.641 397.597 30.1565C395.867 32.989 389.998 33.9418 389.511 31.4694C389.136 29.5518 389.482 21.3608 389.964 20.8078C390.62 20.0548 393.255 20.3805 395.043 21.4367ZM527.991 21.0852C532.294 21.8105 533.876 22.9994 534.109 25.6837C534.444 29.5518 532.849 30.2857 524.224 30.2375C515.909 30.191 515.983 30.2168 516.028 27.2482C516.08 23.7575 516.448 21.2678 516.985 20.7544C517.593 20.1737 523.672 20.3564 527.991 21.0852ZM98.3895 22.4239C102.485 23.6903 104.002 29.4329 104.019 43.7403C104.037 57.7306 102.465 61.4126 95.9147 62.7393C92.1205 63.5077 89.6241 63.1683 88.0577 61.671C81.6067 55.5046 80.5595 27.3223 86.6284 23.1906C88.6507 21.814 95.0639 21.3953 98.3895 22.4239ZM458.731 40.9715C459.274 42.243 461.788 54.6087 461.612 55.141C461.37 55.8699 460.588 55.9526 456.565 55.6803C450.837 55.2927 450.997 55.8492 454.272 47.784C457.581 39.6293 457.931 39.0969 458.731 40.9715Z"/>
</mask>
<g filter="url(#filter0_i_96_51)">
<path fill-rule="evenodd" clip-rule="evenodd" d="M172.729 2.27915C169.974 2.53242 168.334 3.23883 167.574 4.50348C166.467 6.34187 166.402 5.22023 170.101 47.6479C170.726 54.824 170.695 56.6021 169.915 58.3888C167.698 63.4612 158.754 64.874 155.757 60.6235C154.448 58.7661 154.434 58.6369 152.326 29.5569C150.551 5.04793 150.636 5.50279 147.633 4.55517C145.582 3.90734 135.91 4.67405 134.403 5.60272C132.119 7.01037 132.103 7.41354 133.438 29.4122C135.924 70.3806 137.326 75.0205 148.586 79.5019C158.664 83.5112 175.971 80.7734 183.017 74.0556C189.585 67.791 190.696 61.578 189.147 39.7361C186.409 1.10409 186.77 3.93146 184.401 2.55137C183.36 1.94489 177.81 1.81567 172.729 2.27915ZM226.01 3.85909C196.781 6.24711 198.709 5.38735 199.465 15.7009C200.031 23.4473 200.771 23.8695 211.671 22.6703C218.277 21.9415 218.174 21.8932 218.573 25.9663C218.664 26.9139 219.685 37.5756 220.84 49.6569C221.995 61.74 223.086 72.9167 223.264 74.4967C223.958 80.6494 225.389 81.6142 232.859 80.9595C240.227 80.3134 241.031 79.2383 240.386 70.8974C240.209 68.6128 239.524 58.537 238.863 48.5094C238.201 38.4801 237.524 28.4129 237.358 26.1386C236.923 20.2116 236.415 20.62 244.874 20.0876C255.309 19.4294 255.943 18.8626 255.575 10.52C255.154 0.919737 256.976 1.3298 226.01 3.85909ZM306.76 2.27915C304.419 2.52725 303.516 2.85289 302.667 3.75399C301.255 5.24952 301.266 5.1134 301.387 18.3319L301.502 30.8371L300.751 31.1662C299.227 31.8364 287.553 32.5342 286.929 31.9949C286.253 31.4108 286.235 31.2713 285.114 18.3577C283.755 2.68404 284.2 3.2888 274.121 3.47487C264.31 3.65578 264.708 2.73401 265.772 22.8081C268.807 80.0791 268.618 77.2603 269.564 79.0436C270.617 81.0301 271.798 81.3041 278.818 81.1938C288.301 81.0474 287.683 82.1518 287.683 65.3306C287.683 50.5425 287.497 51.5366 290.32 51.2661C294.393 50.8785 301.76 50.5132 302.292 50.6734C303.348 50.9956 303.496 51.9984 304.21 63.7282C305.264 81.0474 304.776 80.3513 315.524 79.8551C323.301 79.495 324.437 79.0797 325.387 76.2438C325.798 75.0222 325.792 74.8809 324.768 56.4057C324.444 50.5614 323.707 37.0587 323.13 26.397C321.89 3.43008 321.903 3.51623 319.539 2.44455C318.454 1.95178 310.761 1.85185 306.76 2.27915ZM87.7928 2.57377C74.8799 3.82808 68.0702 11.4349 65.6981 27.2585C61.9977 51.9398 68.0017 73.7472 80.0746 79.4709C83.9823 81.323 84.4618 81.3954 92.3692 81.3196C110.037 81.1525 117.501 77.1535 121.198 65.875C124.221 56.659 123.768 26.9105 120.462 17.3515C116.587 6.15407 104.985 0.905954 87.7928 2.57377ZM502.663 2.55137C498.726 3.49038 499.204 0.890446 496.302 37.1655C496.138 39.2192 495.466 47.5532 494.811 55.6872C493.032 77.7445 492.76 76.7882 501.037 77.6704C511.089 78.742 510.983 78.8816 512.54 62.7238C513.8 49.6552 513.84 49.6052 517.605 56.2041C520.095 60.5683 531.355 77.9443 532.503 79.1952C534.868 81.7693 547.912 83.0512 550.262 80.9405C552.921 78.5525 552.18 76.8778 539.462 56.5797C535.19 49.762 535.251 50.446 538.828 49.4226C548.566 46.6331 553.873 36.5487 552.525 23.3974C551.524 13.6455 548.181 9.12271 539.422 5.67681C535.093 3.97281 533.627 3.80223 515.094 2.85289C505.004 2.336 503.697 2.30499 502.663 2.55137ZM602.601 2.58583C599.017 3.08893 599.317 2.80809 590.03 14.3295C581.146 25.3529 581.914 25.2633 581.359 15.3426C580.704 3.63166 580.517 3.42491 570.966 3.95213C561.366 4.47936 561.618 3.89011 562.844 22.9511C563.274 29.6638 564.228 44.6534 564.962 56.2627C565.695 67.8702 566.425 77.7875 566.584 78.301C567.568 81.4764 569.134 82.0157 576.229 81.6263C585.23 81.1301 585.396 80.9285 585.104 70.7562C584.9 63.6162 584.967 62.8668 585.798 62.8668C586.07 62.8668 589.735 66.4402 593.942 70.8079C603.172 80.3892 603.008 80.2824 608.033 79.974C620.328 79.2227 622.062 78.6094 621.975 75.0411C621.918 72.6945 623.909 75.1032 601.847 50.6958C595.908 44.1245 593.051 40.7544 593.051 40.315C593.051 39.507 592.813 39.8412 605.593 22.7289C617.229 7.14649 617.478 6.71747 616.357 4.152C615.632 2.49452 614.769 2.27225 609.214 2.31188C606.519 2.33084 603.545 2.45489 602.601 2.58583ZM455.773 2.8839C452.909 3.71609 453.715 2.14476 440.736 32.2844C434.75 46.1834 428.706 60.2031 427.304 63.4405C421.218 77.4929 421.424 78.8782 429.681 79.5312C439.074 80.2738 440.709 79.8396 442.695 76.0766C444.42 72.8099 443.51 73.0063 454.299 73.5784C465.278 74.159 465.036 74.0935 465.97 76.771C466.507 78.3165 468.36 80.6562 469.058 80.6718C469.097 80.6735 469.93 80.7992 470.907 80.9526C474.445 81.5057 483.486 81.3988 484.563 80.7906C487.441 79.1659 487.427 79.0057 482.778 59.924C480.767 51.671 478.337 41.6882 477.38 37.741C468.609 1.60375 469.51 4.5724 466.945 3.38701C465.332 2.63924 457.781 2.29982 455.773 2.8839ZM22.1199 3.14924C10.402 4.24504 4.79999 9.31396 3.49139 20.0049C1.33925 37.5911 8.12733 47.0862 24.4793 49.3674C33.1059 50.5718 35.9718 52.2568 36.5558 56.4643C37.2696 61.6038 33.1636 65.0205 26.2728 65.0205C22.2118 65.0205 21.5413 64.7827 20.3174 62.8995C17.1973 58.1045 17.4335 58.2165 10.7049 58.3302C2.73255 58.4646 1.05806 60.2151 2.43334 66.9777C3.60855 72.76 10.0506 78.9988 16.4115 80.5201C23.3275 82.1742 34.492 81.9054 39.1676 79.974C57.8051 72.2706 61.401 49.0676 45.552 38.7592C41.5919 36.1851 38.9405 35.2151 31.4278 33.5921C21.4097 31.4281 18.0247 27.815 20.3012 21.7123C22.1613 16.7295 31.6315 16.857 34.93 21.907C37.4354 25.744 37.9473 25.9646 44.3497 25.9646C51.3847 25.9646 52.6086 25.2564 52.6104 21.1885C52.614 14.9739 48.5459 8.30948 43.2989 5.93697C38.4701 3.75572 28.9855 2.50485 22.1199 3.14924ZM373.224 3.05275C370.104 3.62822 369.931 4.68266 369.558 25.2495C369.387 34.6465 369.097 50.0876 368.911 59.5639C368.462 82.6118 368.098 81.7107 377.788 81.4867C385.717 81.3023 385.448 81.9243 386.076 62.3034C386.458 50.3392 385.749 51.5814 392.42 51.1679C407.413 50.2375 415.488 43.6248 417.02 31.0214C418.654 17.6048 411.954 5.89907 401.39 3.7092C398.832 3.17853 375.495 2.6358 373.224 3.05275ZM395.043 21.4367C397.792 23.0614 399.135 27.641 397.597 30.1565C395.867 32.989 389.998 33.9418 389.511 31.4694C389.136 29.5518 389.482 21.3608 389.964 20.8078C390.62 20.0548 393.255 20.3805 395.043 21.4367ZM527.991 21.0852C532.294 21.8105 533.876 22.9994 534.109 25.6837C534.444 29.5518 532.849 30.2857 524.224 30.2375C515.909 30.191 515.983 30.2168 516.028 27.2482C516.08 23.7575 516.448 21.2678 516.985 20.7544C517.593 20.1737 523.672 20.3564 527.991 21.0852ZM98.3895 22.4239C102.485 23.6903 104.002 29.4329 104.019 43.7403C104.037 57.7306 102.465 61.4126 95.9147 62.7393C92.1205 63.5077 89.6241 63.1683 88.0577 61.671C81.6067 55.5046 80.5595 27.3223 86.6284 23.1906C88.6507 21.814 95.0639 21.3953 98.3895 22.4239ZM458.731 40.9715C459.274 42.243 461.788 54.6087 461.612 55.141C461.37 55.8699 460.588 55.9526 456.565 55.6803C450.837 55.2927 450.997 55.8492 454.272 47.784C457.581 39.6293 457.931 39.0969 458.731 40.9715Z" fill="#FDAF01"/>
</g>
<path fill-rule="evenodd" clip-rule="evenodd" d="M172.729 2.27915C169.974 2.53242 168.334 3.23883 167.574 4.50348C166.467 6.34187 166.402 5.22023 170.101 47.6479C170.726 54.824 170.695 56.6021 169.915 58.3888C167.698 63.4612 158.754 64.874 155.757 60.6235C154.448 58.7661 154.434 58.6369 152.326 29.5569C150.551 5.04793 150.636 5.50279 147.633 4.55517C145.582 3.90734 135.91 4.67405 134.403 5.60272C132.119 7.01037 132.103 7.41354 133.438 29.4122C135.924 70.3806 137.326 75.0205 148.586 79.5019C158.664 83.5112 175.971 80.7734 183.017 74.0556C189.585 67.791 190.696 61.578 189.147 39.7361C186.409 1.10409 186.77 3.93146 184.401 2.55137C183.36 1.94489 177.81 1.81567 172.729 2.27915ZM226.01 3.85909C196.781 6.24711 198.709 5.38735 199.465 15.7009C200.031 23.4473 200.771 23.8695 211.671 22.6703C218.277 21.9415 218.174 21.8932 218.573 25.9663C218.664 26.9139 219.685 37.5756 220.84 49.6569C221.995 61.74 223.086 72.9167 223.264 74.4967C223.958 80.6494 225.389 81.6142 232.859 80.9595C240.227 80.3134 241.031 79.2383 240.386 70.8974C240.209 68.6128 239.524 58.537 238.863 48.5094C238.201 38.4801 237.524 28.4129 237.358 26.1386C236.923 20.2116 236.415 20.62 244.874 20.0876C255.309 19.4294 255.943 18.8626 255.575 10.52C255.154 0.919737 256.976 1.3298 226.01 3.85909ZM306.76 2.27915C304.419 2.52725 303.516 2.85289 302.667 3.75399C301.255 5.24952 301.266 5.1134 301.387 18.3319L301.502 30.8371L300.751 31.1662C299.227 31.8364 287.553 32.5342 286.929 31.9949C286.253 31.4108 286.235 31.2713 285.114 18.3577C283.755 2.68404 284.2 3.2888 274.121 3.47487C264.31 3.65578 264.708 2.73401 265.772 22.8081C268.807 80.0791 268.618 77.2603 269.564 79.0436C270.617 81.0301 271.798 81.3041 278.818 81.1938C288.301 81.0474 287.683 82.1518 287.683 65.3306C287.683 50.5425 287.497 51.5366 290.32 51.2661C294.393 50.8785 301.76 50.5132 302.292 50.6734C303.348 50.9956 303.496 51.9984 304.21 63.7282C305.264 81.0474 304.776 80.3513 315.524 79.8551C323.301 79.495 324.437 79.0797 325.387 76.2438C325.798 75.0222 325.792 74.8809 324.768 56.4057C324.444 50.5614 323.707 37.0587 323.13 26.397C321.89 3.43008 321.903 3.51623 319.539 2.44455C318.454 1.95178 310.761 1.85185 306.76 2.27915ZM87.7928 2.57377C74.8799 3.82808 68.0702 11.4349 65.6981 27.2585C61.9977 51.9398 68.0017 73.7472 80.0746 79.4709C83.9823 81.323 84.4618 81.3954 92.3692 81.3196C110.037 81.1525 117.501 77.1535 121.198 65.875C124.221 56.659 123.768 26.9105 120.462 17.3515C116.587 6.15407 104.985 0.905954 87.7928 2.57377ZM502.663 2.55137C498.726 3.49038 499.204 0.890446 496.302 37.1655C496.138 39.2192 495.466 47.5532 494.811 55.6872C493.032 77.7445 492.76 76.7882 501.037 77.6704C511.089 78.742 510.983 78.8816 512.54 62.7238C513.8 49.6552 513.84 49.6052 517.605 56.2041C520.095 60.5683 531.355 77.9443 532.503 79.1952C534.868 81.7693 547.912 83.0512 550.262 80.9405C552.921 78.5525 552.18 76.8778 539.462 56.5797C535.19 49.762 535.251 50.446 538.828 49.4226C548.566 46.6331 553.873 36.5487 552.525 23.3974C551.524 13.6455 548.181 9.12271 539.422 5.67681C535.093 3.97281 533.627 3.80223 515.094 2.85289C505.004 2.336 503.697 2.30499 502.663 2.55137ZM602.601 2.58583C599.017 3.08893 599.317 2.80809 590.03 14.3295C581.146 25.3529 581.914 25.2633 581.359 15.3426C580.704 3.63166 580.517 3.42491 570.966 3.95213C561.366 4.47936 561.618 3.89011 562.844 22.9511C563.274 29.6638 564.228 44.6534 564.962 56.2627C565.695 67.8702 566.425 77.7875 566.584 78.301C567.568 81.4764 569.134 82.0157 576.229 81.6263C585.23 81.1301 585.396 80.9285 585.104 70.7562C584.9 63.6162 584.967 62.8668 585.798 62.8668C586.07 62.8668 589.735 66.4402 593.942 70.8079C603.172 80.3892 603.008 80.2824 608.033 79.974C620.328 79.2227 622.062 78.6094 621.975 75.0411C621.918 72.6945 623.909 75.1032 601.847 50.6958C595.908 44.1245 593.051 40.7544 593.051 40.315C593.051 39.507 592.813 39.8412 605.593 22.7289C617.229 7.14649 617.478 6.71747 616.357 4.152C615.632 2.49452 614.769 2.27225 609.214 2.31188C606.519 2.33084 603.545 2.45489 602.601 2.58583ZM455.773 2.8839C452.909 3.71609 453.715 2.14476 440.736 32.2844C434.75 46.1834 428.706 60.2031 427.304 63.4405C421.218 77.4929 421.424 78.8782 429.681 79.5312C439.074 80.2738 440.709 79.8396 442.695 76.0766C444.42 72.8099 443.51 73.0063 454.299 73.5784C465.278 74.159 465.036 74.0935 465.97 76.771C466.507 78.3165 468.36 80.6562 469.058 80.6718C469.097 80.6735 469.93 80.7992 470.907 80.9526C474.445 81.5057 483.486 81.3988 484.563 80.7906C487.441 79.1659 487.427 79.0057 482.778 59.924C480.767 51.671 478.337 41.6882 477.38 37.741C468.609 1.60375 469.51 4.5724 466.945 3.38701C465.332 2.63924 457.781 2.29982 455.773 2.8839ZM22.1199 3.14924C10.402 4.24504 4.79999 9.31396 3.49139 20.0049C1.33925 37.5911 8.12733 47.0862 24.4793 49.3674C33.1059 50.5718 35.9718 52.2568 36.5558 56.4643C37.2696 61.6038 33.1636 65.0205 26.2728 65.0205C22.2118 65.0205 21.5413 64.7827 20.3174 62.8995C17.1973 58.1045 17.4335 58.2165 10.7049 58.3302C2.73255 58.4646 1.05806 60.2151 2.43334 66.9777C3.60855 72.76 10.0506 78.9988 16.4115 80.5201C23.3275 82.1742 34.492 81.9054 39.1676 79.974C57.8051 72.2706 61.401 49.0676 45.552 38.7592C41.5919 36.1851 38.9405 35.2151 31.4278 33.5921C21.4097 31.4281 18.0247 27.815 20.3012 21.7123C22.1613 16.7295 31.6315 16.857 34.93 21.907C37.4354 25.744 37.9473 25.9646 44.3497 25.9646C51.3847 25.9646 52.6086 25.2564 52.6104 21.1885C52.614 14.9739 48.5459 8.30948 43.2989 5.93697C38.4701 3.75572 28.9855 2.50485 22.1199 3.14924ZM373.224 3.05275C370.104 3.62822 369.931 4.68266 369.558 25.2495C369.387 34.6465 369.097 50.0876 368.911 59.5639C368.462 82.6118 368.098 81.7107 377.788 81.4867C385.717 81.3023 385.448 81.9243 386.076 62.3034C386.458 50.3392 385.749 51.5814 392.42 51.1679C407.413 50.2375 415.488 43.6248 417.02 31.0214C418.654 17.6048 411.954 5.89907 401.39 3.7092C398.832 3.17853 375.495 2.6358 373.224 3.05275ZM395.043 21.4367C397.792 23.0614 399.135 27.641 397.597 30.1565C395.867 32.989 389.998 33.9418 389.511 31.4694C389.136 29.5518 389.482 21.3608 389.964 20.8078C390.62 20.0548 393.255 20.3805 395.043 21.4367ZM527.991 21.0852C532.294 21.8105 533.876 22.9994 534.109 25.6837C534.444 29.5518 532.849 30.2857 524.224 30.2375C515.909 30.191 515.983 30.2168 516.028 27.2482C516.08 23.7575 516.448 21.2678 516.985 20.7544C517.593 20.1737 523.672 20.3564 527.991 21.0852ZM98.3895 22.4239C102.485 23.6903 104.002 29.4329 104.019 43.7403C104.037 57.7306 102.465 61.4126 95.9147 62.7393C92.1205 63.5077 89.6241 63.1683 88.0577 61.671C81.6067 55.5046 80.5595 27.3223 86.6284 23.1906C88.6507 21.814 95.0639 21.3953 98.3895 22.4239ZM458.731 40.9715C459.274 42.243 461.788 54.6087 461.612 55.141C461.37 55.8699 460.588 55.9526 456.565 55.6803C450.837 55.2927 450.997 55.8492 454.272 47.784C457.581 39.6293 457.931 39.0969 458.731 40.9715Z" stroke="#262626" stroke-width="4" mask="url(#path-1-outside-1_96_51)"/>
<defs>
<filter id="filter0_i_96_51" x="-1.99988" y="0" width="626" height="86" filterUnits="userSpaceOnUse" color-interpolation-filters="sRGB">
<feFlood flood-opacity="0" result="BackgroundImageFix"/>
<feBlend mode="normal" in="SourceGraphic" in2="BackgroundImageFix" result="shape"/>
<feColorMatrix in="SourceAlpha" type="matrix" values="0 0 0 0 0 0 0 0 0 0 0 0 0 0 0 0 0 0 127 0" result="hardAlpha"/>
<feOffset dx="-3" dy="4"/>
<feGaussianBlur stdDeviation="1"/>
<feComposite in2="hardAlpha" operator="arithmetic" k2="-1" k3="1"/>
<feColorMatrix type="matrix" values="0 0 0 0 1 0 0 0 0 1 0 0 0 0 1 0 0 0 0.65 0"/>
<feBlend mode="normal" in2="shape" result="effect1_innerShadow_96_51"/>
</filter>
</defs>
</svg>
